<?xml version="1.0" encoding="UTF-8"?>
<svg id="Capa_2" xmlns="http://www.w3.org/2000/svg" viewBox="0 0 1206.59 245.49">
  <defs>
    <style>
      .cls-1 {
        fill: #fff;
      }

      .cls-2 {
        fill: #e30613;
      }
    </style>
    <filter id="neonGlow" x="-40%" y="-40%" width="180%" height="180%">
      <feDropShadow dx="0" dy="0" stdDeviation="6" flood-color="#ff002b" flood-opacity="0.9"/>
      <feDropShadow dx="0" dy="0" stdDeviation="12" flood-color="#ff002b" flood-opacity="0.35"/>
    </filter>
  </defs>
  <g id="Capa_1-2" data-name="Capa_1" filter="url(#neonGlow)">
    <g>
      <path class="cls-1" d="M323.74,42.86l-47.95,104.43h154.29l-22.55,49.1H124.2L214.38,0h-125.48L3.94,185.04c-12.97,28.26,7.67,60.45,38.76,60.45h420.76c28.64,0,54.65-16.68,66.6-42.71l48.02-104.58h-154.28l22.55-49.1h154.28L623.18,0h-232.6c-28.74,0-54.85,16.74-66.84,42.86Z"/>
      <path class="cls-2" d="M717.81,143.7l1.83-3.95,4.03-8.71h36.09l.4-.87,6.31-13.6.99-2.13h-36.09l3.33-7.16,2.55-5.49h50.37l.4-.87,6.04-13,.99-2.13h-67.97l-.4.87-6.03,13-2.95,6.36-4.31,9.3-6.31,13.6-4.45,9.58-2.82,6.08-6.03,13-.99,2.13h67.97l.4-.87,6.03-13,.99-2.13h-50.37ZM698.09,107.28l2.95-6.36c1.54-3.32,1.28-7.13-.68-10.21-1.97-3.08-5.32-4.92-8.98-4.92h-57.7l-.4.87-6.04,13-2.95,6.36-4.31,9.29-6.32,13.6-4.44,9.58-2.82,6.08-6.04,13-.99,2.13h59.11c9.29,0,17.82-5.44,21.72-13.87l2.82-6.08,4.44-9.58,6.31-13.6,4.31-9.3ZM681.09,106.02l-4.31,9.29-6.31,13.6-4.45,9.58c-1.47,3.16-4.67,5.21-8.17,5.21h-33.47l1.83-3.95,4.45-9.58,6.31-13.6,4.31-9.3,2.55-5.49h34.55c1.04,0,1.95.5,2.51,1.37.56.87.63,1.91.19,2.85ZM874.76,114.44h-51.94l5.87-12.66h51.94l.4-.87,6.04-13,.99-2.13h-64.85c-5.69,0-10.92,3.34-13.31,8.5l-16.07,34.63-.99,2.13h51.94l-5.88,12.66h-51.93l-.4.87-6.04,13-.99,2.13h64.84c5.7,0,10.93-3.34,13.33-8.5l16.08-34.62.99-2.13ZM1004.49,114.44h-31.88l-.4.87-6.31,13.6-.99,2.13h14.28l-3.45,7.45-2.42,5.21h-39.49l1.83-3.95,4.44-9.58,6.31-13.6,4.31-9.3,2.55-5.49h57.08l.4-.87,6.04-13,.99-2.13h-74.68l-.4.87-6.03,13-2.95,6.36-4.32,9.3-6.31,13.6-4.45,9.58-2.81,6.08-6.04,13-.99,2.13h74.68l.4-.87,6.03-13,2.82-6.08,4.45-9.58,6.31-13.6.99-2.13ZM914.46,107.28l2.95-6.36,6.04-13,.99-2.13h-17.59l-.4.87-6.03,13-2.95,6.36-4.32,9.3-6.31,13.6-4.44,9.58-2.82,6.08-6.03,13-.99,2.13h17.58l.4-.87,6.03-13,2.82-6.08,4.45-9.58,6.31-13.6,4.31-9.3ZM1204.24,85.79h-62.5c-5.69,0-10.92,3.34-13.31,8.5l-16.07,34.63-.99,2.13h51.94l-5.88,12.66h-51.93l-.4.87-6.04,13-.99,2.13h64.84c5.7,0,10.93-3.34,13.33-8.5l16.08-34.62.99-2.13h-51.94l5.87-12.66h51.94l.4-.87,6.04-13,.99-2.13h-2.35ZM1113.44,85.79h-17.58l-.4.87-22.72,48.94-18.03-43.2c-1.68-4.02-5.57-6.61-9.92-6.61h-8.04l-.4.87-32.92,70.91-.99,2.13h17.58l.4-.87,23.06-49.69,18.36,43.97c1.67,4,5.55,6.58,9.88,6.58h7.41l.4-.87,32.92-70.91.99-2.13Z"/>
    </g>
  </g>
</svg>